# xmcd
#
# Track frame offsets:
#	150
#	15692
#	29711
#	58445
#	74227
#	91959
#	108371
#	131818
#	147435
#	163922
#
# Disc length: 2479 seconds
#
# Revision: 1
# Processed by: cddbd v1.5.2PL0 Copyright (c) Steve Scherf et al.
# Submitted via: audiograbber 1.83.01
#
DISCID=a109ad0a
DTITLE=Shannon Curfman - What you´re getting into
DYEAR=2010
DGENRE=
TTITLE0=What you´re getting into
TTITLE1=Free your mind
TTITLE2=The core
TTITLE3=Heaven is in your mind
TTITLE4=All I have
TTITLE5=Curious
TTITLE6=Oh well
TTITLE7=What would mama say
TTITLE8=Dragon attack
TTITLE9=Strange
EXTD=
EXTT0=
EXTT1=
EXTT2=
EXTT3=
EXTT4=
EXTT5=
EXTT6=
EXTT7=
EXTT8=
EXTT9=
PLAYORDER=
